:SAMPLES-PER-SECOND 30
:FULLY-SPECIFIED
:DEGREES
333
root  17.611 38.5338 5.4967 163.391 84.9423 162.257
RightUpLeg  -33.2528 -2.40656 -3.676
RightLeg  33.7571 0.293916 -0.0282708
RightFoot  -11.0001 -0.0797102 1.72227
RightToes  -5.8209e-011 0 -3.6325e-017
Spine  10.8128 -1.75902 -2.61583
Spine1  6.95037 -2.12654 0.196226
HEad  -7.19065 10.9632 -9.95412
LeftShoulder1  -0.56489 5.62218 -20.1116
LeftArm  -12.8141 -46.6946 -60.3824
LeftForeArm  156.539 -61.2834 -160.67
LeftHand  -0.978822 -2.9366 13.8448
RightShoulder  -0.118296 -3.83267 27.0139
RightArm  12.4986 -14.8537 44.4183
RightForeArm  16.5129 7.09143 6.48281
RightHand  -0.263023 5.5669 -3.07241
LeftUpLeg  7.71877 8.27671 -0.0251906
LeftLeg  11.8502 8.37189 0.542316
LeftFoot  -21.7876 -0.24476 -4.10576
LeftToes  -8.31281e-010 4.41007e-011 3.74621e-011
334
root  17.8461 38.4965 5.48319 163.383 85.4069 162.047
RightUpLeg  -32.3574 -1.44615 -4.0395
RightLeg  29.2886 -0.723753 -0.664559
RightFoot  -11.31 -0.0769305 1.70872
RightToes  -5.8209e-011 0 -3.6325e-017
Spine  10.5891 -1.9132 -2.30088
Spine1  7.37445 -2.27212 0.277617
HEad  -7.93225 11.2506 -9.59986
LeftShoulder1  -0.6498 5.9349 -20.1914
LeftArm  -13.0006 -47.5629 -60.7229
LeftForeArm  155.94 -61.2779 -160.617
LeftHand  -0.967742 -2.94248 13.6837
RightShoulder  -0.0599495 -3.6601 26.3481
RightArm  10.9403 -15.3894 44.0904
RightForeArm  16.1493 7.07854 5.81011
RightHand  -0.125635 4.66429 -1.76774
LeftUpLeg  8.05667 8.29067 0.0558284
LeftLeg  11.6301 8.72806 0.585313
LeftFoot  -22.0647 -0.264589 -4.22715
LeftToes  -8.31281e-010 4.41007e-011 3.74621e-011
335
root  18.1921 38.373 5.4792 159.562 86.0153 158.016
RightUpLeg  -31.6364 -0.684778 -4.40293
RightLeg  25.404 -1.102 -0.80347
RightFoot  -10.9442 -0.0804598 1.72466
RightToes  -5.8209e-011 0 -3.6325e-017
Spine  10.7595 -2.01301 -1.86199
Spine1  6.87186 -2.21839 -0.178878
HEad  -8.13562 11.4504 -9.39213
LeftShoulder1  -0.610628 5.84024 -19.4671
LeftArm  -13.5492 -48.0336 -61.2039
LeftForeArm  155.535 -60.982 -160.801
LeftHand  -0.915012 -2.52799 13.602
RightShoulder  -0.0051904 -3.49225 26.0307
RightArm  10.0319 -15.2993 43.7365
RightForeArm  14.4446 6.61983 5.48776
RightHand  -0.242155 4.90755 -3.00554
LeftUpLeg  8.30206 8.43094 0.00537003
LeftLeg  12.0711 9.20496 0.652192
LeftFoot  -22.7149 -0.298508 -4.36479
LeftToes  -8.31281e-010 4.41007e-011 3.74621e-011
336
root  18.6747 38.189 5.45556 149.035 86.5237 147.341
RightUpLeg  -30.9896 -0.154676 -5.10125
RightLeg  22.9599 0.163871 -0.133875
RightFoot  -10.3499 -0.0932061 2.62854
RightToes  -5.8209e-011 0 -3.6325e-017
Spine  10.443 -2.01588 -1.32262
Spine1  7.04025 -1.94811 -1.12422
HEad  -8.5713 10.6761 -9.0377
LeftShoulder1  -0.451788 5.31469 -18.3028
LeftArm  -13.8201 -48.7235 -61.8495
LeftForeArm  155.053 -61.0037 -160.739
LeftHand  -0.893604 -2.44709 13.4355
RightShoulder  -0.0625867 -3.66792 26.4533
RightArm  9.9476 -14.1645 42.7912
RightForeArm  12.8524 6.352 5.44804
RightHand  -0.374254 6.76023 -3.93385
LeftUpLeg  9.03422 8.41444 -0.492386
LeftLeg  12.1277 10.0771 0.731837
LeftFoot  -23.2737 -0.327459 -4.46762
LeftToes  -8.31281e-010 4.41007e-011 3.74621e-011
337
root  19.3135 37.9704 5.46437 141.599 86.6846 140.053
RightUpLeg  -29.9641 0.426607 -5.66126
RightLeg  22.1927 0.908016 0.198009
RightFoot  -9.34763 -0.116693 3.02952
RightToes  -5.8209e-011 0 -3.6325e-017
Spine  10.6769 -2.15259 -1.75766
Spine1  6.77929 -2.39195 -0.17789
HEad  -9.12414 10.8869 -9.44173
LeftShoulder1  -0.507847 5.48375 -19.036
LeftArm  -13.5747 -49.3577 -61.5287
LeftForeArm  154.143 -61.1994 -160.507
LeftHand  -0.850868 -1.57195 14.3257
RightShoulder  -0.00719344 -3.49954 25.8021
RightArm  9.78261 -12.7563 42.5579
RightForeArm  12.7147 6.19149 5.39829
RightHand  -0.364094 5.88292 -4.06773
LeftUpLeg  10.2596 8.72189 -0.416028
LeftLeg  12.3728 10.0914 0.623092
LeftFoot  -23.9589 -0.35467 -4.50856
LeftToes  -8.31281e-010 4.41007e-011 3.74621e-011
338
root  20.0701 37.7593 5.45796 141.974 86.9329 140.556
RightUpLeg  -28.9102 0.356166 -5.45035
RightLeg  22.5845 0.770256 0.135996
RightFoot  -7.62625 -0.138388 2.82741
RightToes  -5.8209e-011 0 -3.6325e-017
Spine  10.4837 -2.40322 -1.1365
Spine1  6.96314 -2.80151 0.386776
HEad  -9.52807 10.5968 -9.93801
LeftShoulder1  -0.44674 5.23738 -19.1665
LeftArm  -13.2801 -49.6254 -61.7467
LeftForeArm  153.805 -61.4114 -160.314
LeftHand  -0.870255 -1.58427 14.6386
RightShoulder  0.0339922 -3.3701 25.7013
RightArm  9.20316 -11.2933 42.1778
RightForeArm  12.8596 6.47612 5.17181
RightHand  -0.313818 5.9294 -3.54299
LeftUpLeg  11.6146 8.95273 -0.0541322
LeftLeg  12.5645 10.1219 0.887471
LeftFoot  -24.6104 -0.37718 -4.51232
LeftToes  -8.31281e-010 4.41007e-011 3.74621e-011
339
root  20.899 37.5946 5.45562 159.457 87.441 158.096
RightUpLeg  -28.4819 -1.17186 -3.90054
RightLeg  23.703 1.15336 0.349256
RightFoot  -3.31203 -0.184109 2.23995
RightToes  -5.8209e-011 0 -3.6325e-017
Spine  10.4059 -2.74291 0.722177
Spine1  7.20169 -3.21449 1.04845
HEad  -9.8049 10.1456 -9.9064
LeftShoulder1  -0.404129 5.06308 -19.3145
LeftArm  -12.9021 -49.748 -62.2731
LeftForeArm  154.488 -61.5383 -160.281
LeftHand  -0.813566 -1.79627 13.3517
RightShoulder  0.0570475 -3.29498 25.0675
RightArm  8.07879 -10.1845 42.4445
RightForeArm  11.8333 7.74441 4.82633
RightHand  -0.311254 6.02026 -3.49293
LeftUpLeg  12.9698 9.06866 0.944744
LeftLeg  12.6741 10.0781 1.62777
LeftFoot  -25.2504 -0.463944 -5.0386
LeftToes  -8.31281e-010 4.41007e-011 3.74621e-011
340
root  21.7989 37.3435 5.43484 -161.633 87.7341 -162.838
RightUpLeg  -28.3564 -2.70876 -1.72881
RightLeg  25.911 3.44692 1.60335
RightFoot  -1.46276 -0.216974 2.39683
RightToes  -5.8209e-011 0 -3.6325e-017
Spine  10.7314 -3.18804 3.68607
Spine1  6.92447 -3.46109 1.20426
HEad  -10.4322 10.2484 -10.2373
LeftShoulder1  -0.343695 4.84025 -19.1242
LeftArm  -12.6479 -49.5161 -62.5553
LeftForeArm  154.726 -61.069 -160.66
LeftHand  -0.757025 -0.409989 15.191
RightShoulder  0.0822697 -3.21143 24.7388
RightArm  7.66149 -8.6083 42.3965
RightForeArm  9.92487 9.2057 4.72367
RightHand  -0.317935 5.99948 -3.56624
LeftUpLeg  13.6601 9.04266 2.53839
LeftLeg  14.8197 10.2386 3.06594
LeftFoot  -26.3707 -0.667445 -6.24748
LeftToes  -8.31281e-010 4.41007e-011 3.74621e-011
